<svg version="1.1" viewBox="0.0 0.0 578.4461942257218 576.6981627296587" fill="none" stroke="none" stroke-linecap="square" stroke-miterlimit="10" xmlns:xlink="http://www.w3.org/1999/xlink" xmlns="http://www.w3.org/2000/svg"><clipPath id="p.0"><path d="m0 0l578.44617 0l0 576.6982l-578.44617 0l0 -576.6982z" clip-rule="nonzero"/></clipPath><path fill="#000000" fill-opacity="0.0" d="m0 0l578.44617 0l0 576.6982l-578.44617 0z" fill-rule="evenodd"/><path fill="#b04d00" d="m6.11811 287.03937l0 0c0 -156.59665 127.14408 -283.5433 283.98425 -283.5433l0 0c75.31732 0 147.5498 29.873226 200.80719 83.04791c53.257385 53.174683 83.17706 125.29503 83.17706 200.49539l0 0c0 156.59665 -127.14407 283.54333 -283.98425 283.54333l0 0c-156.84016 0 -283.98425 -126.946686 -283.98425 -283.54333zm45.42931 0l0 0c0 131.50674 106.80469 238.11401 238.55493 238.11401c131.75027 0 238.55493 -106.60727 238.55493 -238.11401l0 0c0 -131.50673 -106.80466 -238.114 -238.55493 -238.114l0 0c-131.75024 0 -238.55493 106.60727 -238.55493 238.114z" fill-rule="evenodd"/><path fill="#b04d00" d="m278.87402 79.244095l30.015747 0l0 238.5512l-30.015747 0z" fill-rule="evenodd"/><path fill="#b04d00" d="m465.22797 181.78696l16.37793 25.133865l-178.77164 116.535416l-16.37796 -25.13385z" fill-rule="evenodd"/><path fill="#b04d00" d="m275.09448 315.95276l0 0c0 -7.5232544 6.719269 -13.62204 15.007874 -13.62204l0 0c8.288635 0 15.007874 6.0987854 15.007874 13.62204l0 0c0 7.5232544 -6.7192383 13.62204 -15.007874 13.62204l0 0c-8.288605 0 -15.007874 -6.0987854 -15.007874 -13.62204z" fill-rule="evenodd"/><path fill="#b04d00" d="m278.87402 77.708664l0 0c0 -3.4963531 6.7192383 -6.3307114 15.007874 -6.3307114l0 0c8.288605 0 15.007874 2.8343582 15.007874 6.3307114l0 0c0 3.4963531 -6.719269 6.3307037 -15.007874 6.3307037l0 0c-8.288635 0 -15.007874 -2.8343506 -15.007874 -6.3307037z" fill-rule="evenodd"/><path fill="#b04d00" d="m465.04562 180.885l0 0c2.8962097 -1.9569092 9.009125 2.0196533 13.653534 8.881897l0 0c4.644409 6.8622437 6.0615845 14.011581 3.1653442 15.968506l0 0c-2.8962097 1.9569092 -9.009125 -2.0196533 -13.653534 -8.881897l0 0c-4.644409 -6.8622437 -6.0615845 -14.011581 -3.1653442 -15.968506z" fill-rule="evenodd"/></svg>