<svg version="1.1" viewBox="0.0 0.0 604.6614173228346 321.5538057742782" fill="none" stroke="none" stroke-linecap="square" stroke-miterlimit="10" xmlns:xlink="http://www.w3.org/1999/xlink" xmlns="http://www.w3.org/2000/svg"><clipPath id="p.0"><path d="m0 0l604.66144 0l0 321.5538l-604.66144 0l0 -321.5538z" clip-rule="nonzero"/></clipPath><g clip-path="url(#p.0)"><path fill="#000000" fill-opacity="0.0" d="m0 0l604.66144 0l0 321.5538l-604.66144 0z" fill-rule="evenodd"/><path fill="#b04d00" d="m24.461943 4.3648295l557.48035 0l0 305.82675l-557.48035 0zm22.239721 22.239721l0 261.34732l513.00085 0l0 -261.34732z" fill-rule="evenodd"/><path fill="#b04d00" d="m44.997375 96.5538l0 0c35.467987 0 64.220474 29.53511 64.220474 65.968506c0 36.433395 -28.752487 65.968506 -64.220474 65.968506z" fill-rule="evenodd"/><path fill="#b04d00" d="m158.85301 4.3648295l286.3307 0l0 305.82675l-286.3307 0zm20.821976 20.821968l0 264.18283l244.68677 0l0 -264.18283z" fill-rule="evenodd"/><path fill="#b04d00" d="m262.86877 162.52231l0 0c0 -52.60186 20.92627 -95.244095 46.740143 -95.244095l0 0c12.396271 0 24.28482 10.034622 33.050293 27.896355c8.765472 17.861732 13.68988 42.08744 13.68988 67.34774l0 0c0 52.601868 -20.9263 95.24411 -46.740173 95.24411l0 0c-25.813873 0 -46.740143 -42.642242 -46.740143 -95.24411z" fill-rule="evenodd"/><path fill="#b04d00" d="m560.80316 228.49081l0 0c-35.468018 0 -64.22049 -29.53511 -64.22049 -65.968506c0 -36.433395 28.752472 -65.968506 64.22049 -65.968506z" fill-rule="evenodd"/><path fill="#b04d00" d="m24.461525 34.947506l-13.984251 -13.981176l13.984251 -16.6015z" fill-rule="evenodd"/><path fill="#b04d00" d="m24.461525 65.53018l-13.984251 -13.981174l13.984251 -16.601501z" fill-rule="evenodd"/><path fill="#b04d00" d="m24.461525 96.11286l-13.984251 -13.981178l13.984251 -16.601501z" fill-rule="evenodd"/><path fill="#b04d00" d="m24.461525 126.69554l-13.984251 -13.981178l13.984251 -16.601501z" fill-rule="evenodd"/><path fill="#b04d00" d="m24.461525 157.27821l-13.984251 -13.981171l13.984251 -16.601501z" fill-rule="evenodd"/><path fill="#b04d00" d="m24.461525 187.86089l-13.984251 -13.981171l13.984251 -16.601501z" fill-rule="evenodd"/><path fill="#b04d00" d="m24.461525 218.44357l-13.984251 -13.981186l13.984251 -16.601501z" fill-rule="evenodd"/><path fill="#b04d00" d="m24.461525 249.02625l-13.984251 -13.981171l13.984251 -16.601501z" fill-rule="evenodd"/><path fill="#b04d00" d="m24.461525 279.60892l-13.984251 -13.981171l13.984251 -16.601501z" fill-rule="evenodd"/><path fill="#b04d00" d="m24.461525 310.1916l-13.984251 -13.981171l13.984251 -16.601501z" fill-rule="evenodd"/><path fill="#b04d00" d="m581.94183 279.60892l13.984253 13.981171l-13.984253 16.601501z" fill-rule="evenodd"/><path fill="#b04d00" d="m581.94183 249.02625l13.984253 13.981171l-13.984253 16.601501z" fill-rule="evenodd"/><path fill="#b04d00" d="m581.94183 218.44357l13.984253 13.981171l-13.984253 16.601501z" fill-rule="evenodd"/><path fill="#b04d00" d="m581.94183 187.86089l13.984253 13.981186l-13.984253 16.601501z" fill-rule="evenodd"/><path fill="#b04d00" d="m581.94183 157.27821l13.984253 13.981186l-13.984253 16.601486z" fill-rule="evenodd"/><path fill="#b04d00" d="m581.94183 126.69554l13.984253 13.981171l-13.984253 16.601501z" fill-rule="evenodd"/><path fill="#b04d00" d="m581.94183 96.11286l13.984253 13.981178l-13.984253 16.601501z" fill-rule="evenodd"/><path fill="#b04d00" d="m581.94183 65.53018l13.984253 13.981178l-13.984253 16.601501z" fill-rule="evenodd"/><path fill="#b04d00" d="m581.94183 34.947506l13.984253 13.981178l-13.984253 16.601498z" fill-rule="evenodd"/><path fill="#b04d00" d="m581.94183 4.3648295l13.984253 13.981176l-13.984253 16.6015z" fill-rule="evenodd"/></g></svg>