<svg version="1.1" viewBox="0.0 0.0 764.501312335958 180.0" fill="none" stroke="none" stroke-linecap="square" stroke-miterlimit="10" xmlns:xlink="http://www.w3.org/1999/xlink" xmlns="http://www.w3.org/2000/svg"><clipPath id="p.0"><path d="m0 0l764.50134 0l0 180.0l-764.50134 0l0 -180.0z" clip-rule="nonzero"/></clipPath><path fill="#000000" fill-opacity="0.0" d="m0 0l764.50134 0l0 180.0l-764.50134 0z" fill-rule="evenodd"/><path fill="#000000" fill-opacity="0.0" d="m0.0026144357 0l764.5039 0l0 52.62992l-764.5039 0z" fill-rule="evenodd"/><path fill="#000000" d="m19.798727 17.353123l-6.125001 0l0 -2.359375l15.125001 0l0 2.359375l-5.96875 0l0 30.046875l-3.03125 0l0 -30.046875zm12.513105 -2.359375l3.078125 0l0 14.359375l10.203125 0l0 -14.359375l3.046875 0l0 32.40625l-3.046875 0l0 -15.765625l-10.203125 0l0 15.765625l-3.078125 0l0 -32.40625zm21.959976 0l11.718754 0l0 2.359375l-8.640629 0l0 12.171875l7.046879 0l0 2.234375l-7.046879 0l0 13.359375l8.718754 0l0 2.28125l-11.796879 0l0 -32.40625zm15.966862 0l7.3125 0q4.359375 0 6.203125 2.109375q1.84375 2.09375 1.84375 6.140625q0 3.078125 -1.0 5.078125q-1.0 2.0 -3.484375 2.515625l4.96875 16.5625l-2.96875 0l-4.765625 -15.921875l-5.078125 0l0 15.921875l-3.03125 0l0 -32.40625zm7.15625 14.25q2.921875 0 4.078125 -1.4375q1.15625 -1.453125 1.15625 -4.5625q0 -3.15625 -1.09375 -4.5625q-1.09375 -1.40625 -4.0625 -1.40625l-4.203125 0l0 11.96875l4.125 0zm13.276855 -14.25l11.71875 0l0 2.359375l-8.640625 0l0 12.171875l7.046875 0l0 2.234375l-7.046875 0l0 13.359375l8.71875 0l0 2.28125l-11.796875 0l0 -32.40625zm15.169983 8.09375q1.078125 -0.40625 1.453125 -1.296875q0.375 -0.90625 0.375 -2.828125l-1.59375 0l0 -3.96875l3.359375 0l0 3.359375q0 2.609375 -0.625 3.96875q-0.609375 1.359375 -2.25 1.84375l-0.71875 -1.078125zm14.631866 24.71875q-3.796875 0 -5.796875 -2.34375q-2.0 -2.34375 -2.28125 -6.46875l2.671875 -0.796875q0.375 3.4375 1.546875 5.28125q1.1875 1.84375 3.90625 1.84375q4.546875 0 4.546875 -4.6875q0 -2.0 -0.9375 -3.515625q-0.9375 -1.515625 -3.015625 -3.484375l-5.71875 -5.46875q-1.5625 -1.453125 -2.265625 -3.03125q-0.6875 -1.578125 -0.6875 -3.5q0 -3.3125 1.96875 -5.125q1.984375 -1.828125 5.34375 -1.828125q3.59375 0 5.515625 1.921875q1.921875 1.921875 2.25 6.28125l-2.609375 0.671875q-0.234375 -3.28125 -1.375 -4.875q-1.140625 -1.59375 -3.78125 -1.59375q-2.078125 0 -3.328125 1.078125q-1.234375 1.078125 -1.234375 3.1875q0 1.359375 0.515625 2.453125q0.53125 1.078125 1.765625 2.28125l5.71875 5.390625q2.203125 2.078125 3.453125 4.265625q1.265625 2.171875 1.265625 4.703125q0 3.515625 -2.046875 5.4375q-2.03125 1.921875 -5.390625 1.921875zm19.68496 -32.8125l2.203125 0l10.3125 25.171875l0 -25.171875l2.640625 0l0 32.40625l-2.15625 0l-10.359375 -25.4375l0 25.4375l-2.640625 0l0 -32.40625zm28.471863 32.8125q-4.5625 0 -6.46875 -2.59375q-1.890625 -2.609375 -1.890625 -7.375l0 -13.4375q0 -4.71875 1.921875 -7.21875q1.921875 -2.5 6.4375 -2.5q4.4375 0 6.359375 2.515625q1.921875 2.515625 1.921875 7.203125l0 13.484375q0 4.75 -1.875 7.34375q-1.875 2.578125 -6.40625 2.578125zm0 -2.453125q2.96875 0 4.078125 -1.734375q1.125 -1.734375 1.125 -5.09375l0 -14.6875q0 -3.359375 -1.109375 -5.03125q-1.09375 -1.6875 -4.09375 -1.6875q-3.03125 0 -4.15625 1.671875q-1.125 1.65625 -1.125 5.046875l0 14.6875q0 3.390625 1.125 5.109375q1.125 1.71875 4.15625 1.71875zm17.32811 -28.0l-6.125 0l0 -2.359375l15.125 0l0 2.359375l-5.96875 0l0 30.046875l-3.03125 0l0 -30.046875zm12.513107 -2.359375l3.078125 0l0 14.359375l10.203125 0l0 -14.359375l3.046875 0l0 32.40625l-3.046875 0l0 -15.765625l-10.203125 0l0 15.765625l-3.078125 0l0 -32.40625zm22.084976 0l3.03125 0l0 32.40625l-3.03125 0l0 -32.40625zm8.801865 0l2.203125 0l10.3125 25.171875l0 -25.171875l2.640625 0l0 32.40625l-2.15625 0l-10.359375 -25.4375l0 25.4375l-2.640625 0l0 -32.40625zm28.112503 32.84375q-4.3593903 0 -6.1875153 -2.65625q-1.8125 -2.65625 -1.8125 -7.65625l0 -12.640625q0 -5.046875 1.796875 -7.625q1.8125 -2.578125 6.4062653 -2.578125q4.203125 0 6.015625 2.34375q1.828125 2.328125 1.828125 6.96875l0 1.125l-2.890625 0l0 -1.125q0 -3.640625 -1.046875 -5.25q-1.03125 -1.625 -3.859375 -1.625q-2.1250153 0 -3.2656403 0.921875q-1.140625 0.921875 -1.53125 2.5q-0.375 1.578125 -0.375 4.015625l0 13.328125q0 3.796875 1.09375 5.640625q1.109375 1.828125 4.1093903 1.828125q2.84375 0 3.953125 -1.859375q1.125 -1.859375 1.125 -5.6875l0 -3.8125l-4.796875 0l0 -2.28125l7.59375 0l0 15.6875l-1.953125 0l-0.359375 -3.6875q-0.6875 1.96875 -2.09375 3.046875q-1.390625 1.078125 -3.75 1.078125zm21.607452 -32.84375l6.953125 0q4.25 0 6.078125 2.109375q1.84375 2.09375 1.84375 5.984375q0 2.625 -0.96875 4.515625q-0.953125 1.875 -3.15625 2.3125q2.640625 0.71875 3.765625 2.921875q1.125 2.203125 1.125 5.203125q0 4.359375 -1.703125 6.859375q-1.703125 2.5 -5.9375 2.5l-8.0 0l0 -32.40625zm7.4375 13.96875q2.59375 0 3.625 -1.5q1.046875 -1.5 1.046875 -4.375q0 -2.046875 -0.546875 -3.28125q-0.53125 -1.25 -1.875 -1.84375q-1.328125 -0.609375 -3.765625 -0.609375l-2.890625 0l0 11.609375l4.40625 0zm-0.046875 16.15625q2.078125 0 3.21875 -0.734375q1.140625 -0.75 1.59375 -2.265625q0.46875 -1.515625 0.46875 -4.078125q0 -6.71875 -5.203125 -6.71875l-4.4375 0l0 13.796875l4.359375 0zm12.642487 -30.125l11.71875 0l0 2.359375l-8.640625 0l0 12.171875l7.046875 0l0 2.234375l-7.046875 0l0 13.359375l8.71875 0l0 2.28125l-11.796875 0l0 -32.40625zm19.966858 2.359375l-6.125 0l0 -2.359375l15.125 0l0 2.359375l-5.96875 0l0 30.046875l-3.03125 0l0 -30.046875zm16.559967 0l-6.125 0l0 -2.359375l15.125 0l0 2.359375l-5.96875 0l0 30.046875l-3.03125 0l0 -30.046875zm12.513123 -2.359375l11.71875 0l0 2.359375l-8.640625 0l0 12.171875l7.046875 0l0 2.234375l-7.046875 0l0 13.359375l8.71875 0l0 2.28125l-11.796875 0l0 -32.40625zm15.966858 0l7.3125 0q4.359375 0 6.203125 2.109375q1.84375 2.09375 1.84375 6.140625q0 3.078125 -1.0 5.078125q-1.0 2.0 -3.484375 2.515625l4.96875 16.5625l-2.96875 0l-4.765625 -15.921875l-5.078125 0l0 15.921875l-3.03125 0l0 -32.40625zm7.15625 14.25q2.921875 0 4.078125 -1.4375q1.15625 -1.453125 1.15625 -4.5625q0 -3.15625 -1.09375 -4.5625q-1.09375 -1.40625 -4.0625 -1.40625l-4.203125 0l0 11.96875l4.125 0zm25.483704 -11.890625l-6.125 0l0 -2.359375l15.125 0l0 2.359375l-5.96875 0l0 30.046875l-3.03125 0l0 -30.046875zm12.513123 -2.359375l3.078125 0l0 14.359375l10.203125 0l0 -14.359375l3.046875 0l0 32.40625l-3.046875 0l0 -15.765625l-10.203125 0l0 15.765625l-3.078125 0l0 -32.40625zm27.08496 0l3.203125 0l6.875 32.40625l-3.0 0l-1.59375 -8.6875l-7.71875 0l-1.640625 8.6875l-2.96875 0l6.84375 -32.40625zm5.078125 21.53125l-3.4375 -17.484375l-3.4375 17.484375l6.875 0zm8.923737 -21.53125l2.203125 0l10.3125 25.171875l0 -25.171875l2.640625 0l0 32.40625l-2.15625 0l-10.359375 -25.4375l0 25.4375l-2.640625 0l0 -32.40625zm28.959991 0l6.953125 0q4.25 0 6.078125 2.109375q1.84375 2.09375 1.84375 5.984375q0 2.625 -0.96875 4.515625q-0.953125 1.875 -3.15625 2.3125q2.640625 0.71875 3.765625 2.921875q1.125 2.203125 1.125 5.203125q0 4.359375 -1.703125 6.859375q-1.703125 2.5 -5.9375 2.5l-8.0 0l0 -32.40625zm7.4375 13.96875q2.59375 0 3.625 -1.5q1.046875 -1.5 1.046875 -4.375q0 -2.046875 -0.546875 -3.28125q-0.53125 -1.25 -1.875 -1.84375q-1.328125 -0.609375 -3.765625 -0.609375l-2.890625 0l0 11.609375l4.40625 0zm-0.046875 16.15625q2.078125 0 3.21875 -0.734375q1.140625 -0.75 1.59375 -2.265625q0.46875 -1.515625 0.46875 -4.078125q0 -6.71875 -5.203125 -6.71875l-4.4375 0l0 13.796875l4.359375 0zm12.642487 -30.125l11.71875 0l0 2.359375l-8.640625 0l0 12.171875l7.046875 0l0 2.234375l-7.046875 0l0 13.359375l8.71875 0l0 2.28125l-11.796875 0l0 -32.40625zm16.044983 0l3.03125 0l0 32.40625l-3.03125 0l0 -32.40625zm8.801819 0l2.203125 0l10.3125 25.171875l0 -25.171875l2.640625 0l0 32.40625l-2.15625 0l-10.359375 -25.4375l0 25.4375l-2.640625 0l0 -32.40625zm28.112549 32.84375q-4.359375 0 -6.1875 -2.65625q-1.8125 -2.65625 -1.8125 -7.65625l0 -12.640625q0 -5.046875 1.796875 -7.625q1.8125 -2.578125 6.40625 -2.578125q4.203125 0 6.015625 2.34375q1.828125 2.328125 1.828125 6.96875l0 1.125l-2.890625 0l0 -1.125q0 -3.640625 -1.046875 -5.25q-1.03125 -1.625 -3.859375 -1.625q-2.125 0 -3.265625 0.921875q-1.140625 0.921875 -1.53125 2.5q-0.375 1.578125 -0.375 4.015625l0 13.328125q0 3.796875 1.09375 5.640625q1.109375 1.828125 4.109375 1.828125q2.84375 0 3.953125 -1.859375q1.125 -1.859375 1.125 -5.6875l0 -3.8125l-4.796875 0l0 -2.28125l7.59375 0l0 15.6875l-1.953125 0l-0.359375 -3.6875q-0.6875 1.96875 -2.09375 3.046875q-1.390625 1.078125 -3.75 1.078125zm26.685547 -32.84375l3.203125 0l6.875 32.40625l-3.0 0l-1.59375 -8.6875l-7.71875 0l-1.640625 8.6875l-2.96875 0l6.84375 -32.40625zm5.078125 21.53125l-3.4375 -17.484375l-3.4375 17.484375l6.875 0zm8.923828 -21.53125l6.953125 0q4.25 0 6.078125 2.109375q1.84375 2.09375 1.84375 5.984375q0 2.625 -0.96875 4.515625q-0.953125 1.875 -3.15625 2.3125q2.640625 0.71875 3.765625 2.921875q1.125 2.203125 1.125 5.203125q0 4.359375 -1.703125 6.859375q-1.703125 2.5 -5.9375 2.5l-8.0 0l0 -32.40625zm7.4375 13.96875q2.59375 0 3.625 -1.5q1.046875 -1.5 1.046875 -4.375q0 -2.046875 -0.546875 -3.28125q-0.53125 -1.25 -1.875 -1.84375q-1.328125 -0.609375 -3.765625 -0.609375l-2.890625 0l0 11.609375l4.40625 0zm-0.046875 16.15625q2.078125 0 3.21875 -0.734375q1.140625 -0.75 1.59375 -2.265625q0.46875 -1.515625 0.46875 -4.078125q0 -6.71875 -5.203125 -6.71875l-4.4375 0l0 13.796875l4.359375 0zm12.689331 -30.125l3.03125 0l0 30.125l9.203125 0l0 2.28125l-12.234375 0l0 -32.40625zm15.233032 0l11.71875 0l0 2.359375l-8.640625 0l0 12.171875l7.046875 0l0 2.234375l-7.046875 0l0 13.359375l8.71875 0l0 2.28125l-11.796875 0l0 -32.40625zm28.126831 2.359375l-6.125 0l0 -2.359375l15.125 0l0 2.359375l-5.96875 0l0 30.046875l-3.03125 0l0 -30.046875zm20.231934 30.453125q-4.5625 0 -6.46875 -2.59375q-1.890625 -2.609375 -1.890625 -7.375l0 -13.4375q0 -4.71875 1.921875 -7.21875q1.921875 -2.5 6.4375 -2.5q4.4375 0 6.359375 2.515625q1.921875 2.515625 1.921875 7.203125l0 13.484375q0 4.75 -1.875 7.34375q-1.875 2.578125 -6.40625 2.578125zm0 -2.453125q2.96875 0 4.078125 -1.734375q1.125 -1.734375 1.125 -5.09375l0 -14.6875q0 -3.359375 -1.109375 -5.03125q-1.09375 -1.6875 -4.09375 -1.6875q-3.03125 0 -4.15625 1.671875q-1.125 1.65625 -1.125 5.046875l0 14.6875q0 3.390625 1.125 5.109375q1.125 1.71875 4.15625 1.71875zm28.363037 2.453125q-3.796875 0 -5.796875 -2.34375q-2.0 -2.34375 -2.28125 -6.46875l2.671875 -0.796875q0.375 3.4375 1.546875 5.28125q1.1875 1.84375 3.90625 1.84375q4.546875 0 4.546875 -4.6875q0 -2.0 -0.9375 -3.515625q-0.9375 -1.515625 -3.015625 -3.484375l-5.71875 -5.46875q-1.5625 -1.453125 -2.265625 -3.03125q-0.6875 -1.578125 -0.6875 -3.5q0 -3.3125 1.96875 -5.125q1.984375 -1.828125 5.34375 -1.828125q3.59375 0 5.515625 1.921875q1.921875 1.921875 2.25 6.28125l-2.609375 0.671875q-0.234375 -3.28125 -1.375 -4.875q-1.140625 -1.59375 -3.78125 -1.59375q-2.078125 0 -3.328125 1.078125q-1.234375 1.078125 -1.234375 3.1875q0 1.359375 0.515625 2.453125q0.53125 1.078125 1.765625 2.28125l5.71875 5.390625q2.203125 2.078125 3.453125 4.265625q1.265625 2.171875 1.265625 4.703125q0 3.515625 -2.046875 5.4375q-2.03125 1.921875 -5.390625 1.921875zm16.60315 -32.8125l3.203125 0l6.875 32.40625l-3.0 0l-1.59375 -8.6875l-7.71875 0l-1.640625 8.6875l-2.96875 0l6.84375 -32.40625zm5.078125 21.53125l-3.4375 -17.484375l-3.4375 17.484375l6.875 0zm14.079956 0.109375l-7.3125 -21.640625l2.953125 0l5.84375 18.0l5.59375 -18.0l3.0 0l-7.125 21.640625l0 10.765625l-2.953125 0l0 -10.765625z" fill-rule="nonzero"/><path fill="#000000" fill-opacity="0.0" d="m0.0052356957 86.002625l764.5039 0l0 80.62993l-764.5039 0z" fill-rule="evenodd"/><path fill="#000000" d="m271.11926 102.9995l4.0625 0l0 43.203125l-4.0625 0l0 -43.203125zm23.311493 0l4.046875 0l8.53125 37.5l8.6875 -37.5l4.0625 0l1.0625 43.203125l-3.359375 0l-0.859375 -34.390625l-8.265625 34.390625l-2.609375 0l-8.15625 -34.34375l-0.859375 34.34375l-3.359375 0l1.078125 -43.203125zm40.368073 0l4.265625 0l9.171875 43.203125l-4.0 0l-2.140625 -11.578125l-10.28125 0l-2.1875 11.578125l-3.953125 0l9.125 -43.203125zm6.765625 28.703125l-4.578125 -23.3125l-4.59375 23.3125l9.171875 0zm11.890564 -28.703125l9.390625 0q6.40625 0 9.0625 3.28125q2.671875 3.28125 2.671875 9.421875l0 17.171875q0 6.453125 -2.59375 9.890625q-2.578125 3.4375 -8.765625 3.4375l-9.765625 0l0 -43.203125zm9.5 40.15625q3.25 0 4.875 -1.359375q1.625 -1.359375 2.109375 -3.625q0.484375 -2.265625 0.484375 -5.9375l0 -16.109375q0 -3.515625 -0.59375 -5.625q-0.578125 -2.109375 -2.234375 -3.21875q-1.65625 -1.125 -4.796875 -1.125l-5.28125 0l0 37.0l5.4375 0zm18.23706 -40.15625l15.625 0l0 3.15625l-11.515625 0l0 16.203125l9.375 0l0 3.0l-9.375 0l0 17.796875l11.625 0l0 3.046875l-15.734375 0l0 -43.203125zm37.49408 3.15625l-8.171875 0l0 -3.15625l20.171875 0l0 3.15625l-7.953125 0l0 40.046875l-4.046875 0l0 -40.046875zm16.687195 -3.15625l4.109375 0l0 19.15625l13.59375 0l0 -19.15625l4.046875 0l0 43.203125l-4.046875 0l0 -21.015625l-13.59375 0l0 21.015625l-4.109375 0l0 -43.203125zm29.43335 0l4.0625 0l0 43.203125l-4.0625 0l0 -43.203125zm20.901306 43.734375q-5.0625 0 -7.734375 -3.109375q-2.65625 -3.125 -3.03125 -8.625l3.578125 -1.0625q0.46875 4.59375 2.046875 7.046875q1.578125 2.453125 5.203125 2.453125q6.078125 0 6.078125 -6.25q0 -2.65625 -1.265625 -4.6875q-1.25 -2.03125 -4.015625 -4.640625l-7.625 -7.3125q-2.078125 -1.921875 -3.015625 -4.015625q-0.9375 -2.109375 -0.9375 -4.671875q0 -4.421875 2.640625 -6.84375q2.640625 -2.4375 7.125 -2.4375q4.796875 0 7.359375 2.5625q2.5625 2.5625 2.984375 8.375l-3.46875 0.90625q-0.3125 -4.375 -1.84375 -6.5q-1.515625 -2.140625 -5.03125 -2.140625q-2.78125 0 -4.4375 1.4375q-1.640625 1.4375 -1.640625 4.265625q0 1.8125 0.6875 3.25q0.703125 1.4375 2.34375 3.046875l7.625 7.203125q2.9375 2.765625 4.609375 5.671875q1.6875 2.90625 1.6875 6.265625q0 4.6875 -2.71875 7.25q-2.71875 2.5625 -7.203125 2.5625z" fill-rule="nonzero"/><path fill="#000000" fill-opacity="0.0" d="m184.5 20.632545l90.48819 0l0 114.48818l-90.48819 0z" fill-rule="evenodd"/><path fill="#b04d00" d="m241.34375 108.46691q-6.25 0 -9.4375 -5.109375q-2.71875 -4.328125 -2.71875 -10.5625q0 -8.0 4.078125 -14.390625q4.078125 -6.40625 12.390625 -10.25l1.4375 2.875q-4.953125 2.078125 -8.5625 6.5625q-3.59375 4.484375 -3.59375 9.125q0 1.921875 0.484375 3.359375q2.5625 -2.078125 5.921875 -2.078125q4.3125 0 7.265625 2.796875q2.96875 2.796875 2.96875 7.4375q0 4.3125 -2.96875 7.28125q-2.953125 2.953125 -7.265625 2.953125zm-27.203125 0q-6.234375 0 -9.4375 -5.109375q-2.71875 -4.328125 -2.71875 -10.5625q0 -8.0 4.078125 -14.390625q4.078125 -6.40625 12.390625 -10.25l1.453125 2.875q-4.96875 2.078125 -8.578125 6.5625q-3.59375 4.484375 -3.59375 9.125q0 1.921875 0.484375 3.359375q2.5625 -2.078125 5.921875 -2.078125q4.3125 0 7.265625 2.796875q2.96875 2.796875 2.96875 7.4375q0 4.3125 -2.96875 7.28125q-2.953125 2.953125 -7.265625 2.953125z" fill-rule="nonzero"/><path fill="#000000" fill-opacity="0.0" d="m587.98816 223.12073l-90.48816 0l0 -114.48818l90.48816 0z" fill-rule="evenodd"/><path fill="#b04d00" d="m531.1444 135.28636q6.25 0 9.4375 5.109375q2.71875 4.328125 2.71875 10.5625q0 8.0 -4.078125 14.390625q-4.078125 6.40625 -12.390625 10.25l-1.4375 -2.875q4.953125 -2.078125 8.5625 -6.5625q3.59375 -4.484375 3.59375 -9.125q0 -1.921875 -0.484375 -3.359375q-2.5625 2.078125 -5.921875 2.078125q-4.3125 0 -7.265625 -2.796875q-2.96875 -2.796875 -2.96875 -7.4375q0 -4.3125 2.96875 -7.28125q2.953125 -2.953125 7.265625 -2.953125zm27.203125 0q6.234375 0 9.4375 5.109375q2.71875 4.328125 2.71875 10.5625q0 8.0 -4.078125 14.390625q-4.078125 6.40625 -12.390625 10.25l-1.453125 -2.875q4.96875 -2.078125 8.578125 -6.5625q3.59375 -4.484375 3.59375 -9.125q0 -1.921875 -0.484375 -3.359375q-2.5625 2.078125 -5.921875 2.078125q-4.3125 0 -7.265625 -2.796875q-2.96875 -2.796875 -2.96875 -7.4375q0 -4.3125 2.96875 -7.28125q2.953125 -2.953125 7.265625 -2.953125z" fill-rule="nonzero"/></svg>