<svg version="1.1" viewBox="0.0 0.0 267.8635170603674 474.53805774278214" fill="none" stroke="none" stroke-linecap="square" stroke-miterlimit="10" xmlns:xlink="http://www.w3.org/1999/xlink" xmlns="http://www.w3.org/2000/svg"><clipPath id="p.0"><path d="m0 0l267.86353 0l0 474.53806l-267.86353 0l0 -474.53806z" clip-rule="nonzero"/></clipPath><g clip-path="url(#p.0)"><path fill="#000000" fill-opacity="0.0" d="m0 0l267.86353 0l0 474.53806l-267.86353 0z" fill-rule="evenodd"/><path fill="#FEC712" d="m5.378061 245.0974l0 0c-3.0064607 -3.0064545 -3.0064607 -7.88089 0 -10.88736l225.90004 -225.90004c1.4437561 -1.4437528 3.4019012 -2.2548451 5.44368 -2.2548451c2.0417786 0 3.9999237 0.8110924 5.44368 2.2548451l21.774048 21.774061c3.0064697 3.0064602 3.0064697 7.8808956 0 10.887358l-225.90004 225.90004c-3.006462 3.0064697 -7.8808956 3.0064697 -10.887358 0z" fill-rule="evenodd"/><path fill="#FEC712" d="m29.860903 215.12349l0 0c3.0064602 -3.0064545 7.8808956 -3.0064545 10.887358 0l223.34888 223.34886c1.4437256 1.4437561 2.2548218 3.4019165 2.2548218 5.443695c0 2.0417786 -0.8110962 3.9999084 -2.2548218 5.4436646l-21.774078 21.774078c-3.0064545 3.0064392 -7.88089 3.0064392 -10.88736 0l-223.34886 -223.34888c-3.0064602 -3.0064545 -3.0064602 -7.88089 0 -10.88736z" fill-rule="evenodd"/></g></svg>